<?xml version="1.0" encoding="UTF-8" standalone="no"?>
<!DOCTYPE svg PUBLIC "-//W3C//DTD SVG 1.1//EN" "http://www.w3.org/Graphics/SVG/1.1/DTD/svg11.dtd">
<svg version="1.1" xmlns="http://www.w3.org/2000/svg" xmlns:xlink="http://www.w3.org/1999/xlink" preserveAspectRatio="xMidYMid meet" viewBox="0 0 640 640" width="640" height="640"><defs><path d="M387.84 254.72L320 322.56L252.16 254.72L234.24 272.64L320 358.4L405.76 272.64L387.84 254.72Z" id="gbV15kZK1"></path><path d="M307.2 340.48L332.8 340.48L332.8 71.68L307.2 71.68L307.2 340.48Z" id="d3HmrP2qaM"></path><path d="M192 512C170.24 512 153.6 495.36 153.6 473.6C153.6 450.56 153.6 266.24 153.6 243.2C153.6 221.44 170.24 204.8 192 204.8C197.97 204.8 227.84 204.8 281.6 204.8L281.6 230.4C227.84 230.4 197.97 230.4 192 230.4C184.32 230.4 179.2 235.52 179.2 243.2C179.2 266.24 179.2 450.56 179.2 473.6C179.2 481.28 184.32 486.4 192 486.4C217.6 486.4 422.4 486.4 448 486.4C455.68 486.4 460.8 481.28 460.8 473.6C460.8 450.56 460.8 266.24 460.8 243.2C460.8 235.52 455.68 230.4 448 230.4C442.03 230.4 412.16 230.4 358.4 230.4L358.4 204.8C412.16 204.8 442.03 204.8 448 204.8C469.76 204.8 486.4 221.44 486.4 243.2C486.4 266.24 486.4 450.56 486.4 473.6C486.4 495.36 469.76 512 448 512C396.8 512 217.6 512 192 512Z" id="cCuPnHS8L"></path></defs><g><g><g><use xlink:href="#gbV15kZK1" opacity="1" fill="#000000" fill-opacity="1"></use><g><use xlink:href="#gbV15kZK1" opacity="1" fill-opacity="0" stroke="#000000" stroke-width="1" stroke-opacity="0"></use></g></g><g><use xlink:href="#d3HmrP2qaM" opacity="1" fill="#000000" fill-opacity="1"></use><g><use xlink:href="#d3HmrP2qaM" opacity="1" fill-opacity="0" stroke="#000000" stroke-width="1" stroke-opacity="0"></use></g></g><g><use xlink:href="#cCuPnHS8L" opacity="1" fill="#000000" fill-opacity="1"></use><g><use xlink:href="#cCuPnHS8L" opacity="1" fill-opacity="0" stroke="#000000" stroke-width="1" stroke-opacity="0"></use></g></g></g></g></svg>