<?xml version="1.0" standalone="no"?>
<!DOCTYPE svg PUBLIC "-//W3C//DTD SVG 20010904//EN"
 "http://www.w3.org/TR/2001/REC-SVG-20010904/DTD/svg10.dtd">
<svg version="1.0" xmlns="http://www.w3.org/2000/svg"
 width="882.000000pt" height="882.000000pt" viewBox="0 0 882.000000 882.000000"
 preserveAspectRatio="xMidYMid meet">
<metadata>
Created by potrace 1.16, written by Peter Selinger 2001-2019
</metadata>
<g transform="translate(0.000000,882.000000) scale(0.100000,-0.100000)"
fill="#000000" stroke="none">
<path d="M3555 7950 l-860 -860 183 -182 182 -183 550 550 550 550 0 -2378 0
-2377 260 0 260 0 0 2377 0 2378 550 -550 550 -550 182 183 183 182 -860 860
c-473 473 -862 860 -865 860 -3 0 -392 -387 -865 -860z"/>
<path d="M1714 6135 c-97 -17 -136 -31 -227 -78 -142 -73 -276 -219 -340 -373
-60 -143 -57 13 -57 -2616 0 -2601 -3 -2459 53 -2598 42 -102 88 -171 174
-257 70 -70 98 -90 185 -132 184 -89 -91 -81 2918 -81 3009 0 2734 -8 2918 81
87 42 115 62 185 132 86 86 132 155 174 257 56 139 53 -3 53 2598 0 2629 3
2473 -57 2616 -68 163 -203 306 -357 381 -172 84 -99 79 -1188 82 l-968 4 0
-260 0 -261 933 -2 c873 -3 935 -4 972 -21 51 -23 91 -61 118 -112 l22 -40 0
-2386 0 -2386 -30 -49 c-19 -30 -49 -60 -79 -79 l-49 -30 -2647 0 -2647 0 -49
30 c-30 19 -60 49 -79 79 l-30 49 0 2386 0 2386 22 40 c27 51 67 89 118 112
37 17 99 18 973 21 l932 2 0 260 0 260 -937 -1 c-722 -1 -954 -4 -1009 -14z"/>
</g>
</svg>
